<mxfile host="65bd71144e">
    <diagram id="4lM-uxgtaoDzdKt9aJTu" name="mvc">
        <mxGraphModel dx="2299" dy="960" grid="1" gridSize="10" guides="1" tooltips="1" connect="1" arrows="1" fold="1" page="0" pageScale="1" pageWidth="827" pageHeight="1169" math="0" shadow="0">
            <root>
                <mxCell id="0"/>
                <mxCell id="1" parent="0"/>
                <mxCell id="147" value="Actor" style="shape=umlActor;verticalLabelPosition=bottom;verticalAlign=top;html=1;outlineConnect=0;strokeColor=#1A595E;fontColor=#124528;fillColor=#12FFF7;gradientColor=#6BB7BF;" parent="1" vertex="1">
                    <mxGeometry x="-1080" y="1440" width="80" height="160" as="geometry"/>
                </mxCell>
                <mxCell id="148" value="" style="fontSize=12;html=1;endArrow=openThin;fontFamily=Helvetica;verticalAlign=top;fillColor=#12FFF7;strokeColor=#1A595E;fontColor=#124528;fontStyle=1;strokeWidth=1;comic=0;fontSource=https%3A%2F%2Ffonts.googleapis.com%2Fcss%3Ffamily%3DRoboto;labelBackgroundColor=none;swimlaneFillColor=#B8D7FF;gradientColor=#6BB7BF;rounded=0;endFill=0;dashed=1;dashPattern=1 4;shape=arrow;" parent="1" source="147" target="79" edge="1">
                    <mxGeometry x="-0.7978" y="50" width="100" height="100" relative="1" as="geometry">
                        <mxPoint x="-229.99999999999977" y="1398" as="sourcePoint"/>
                        <mxPoint x="-160" y="1840" as="targetPoint"/>
                        <mxPoint as="offset"/>
                    </mxGeometry>
                </mxCell>
                <mxCell id="159" value="" style="fontSize=12;html=1;endArrow=openThin;fontFamily=Helvetica;verticalAlign=top;fillColor=#12FFF7;strokeColor=#1A595E;fontColor=#124528;fontStyle=1;strokeWidth=1;comic=0;fontSource=https%3A%2F%2Ffonts.googleapis.com%2Fcss%3Ffamily%3DRoboto;labelBackgroundColor=none;swimlaneFillColor=#B8D7FF;gradientColor=#6BB7BF;rounded=0;endFill=0;dashed=1;dashPattern=1 4;shape=arrow;" parent="1" source="147" target="100" edge="1">
                    <mxGeometry x="-0.7978" y="50" width="100" height="100" relative="1" as="geometry">
                        <mxPoint x="-70" y="1806.7346938775513" as="sourcePoint"/>
                        <mxPoint x="-930" y="1010" as="targetPoint"/>
                        <mxPoint as="offset"/>
                    </mxGeometry>
                </mxCell>
                <mxCell id="160" value="" style="fontSize=12;html=1;endArrow=openThin;fontFamily=Helvetica;verticalAlign=top;fillColor=#12FFF7;strokeColor=#1A595E;fontColor=#124528;fontStyle=1;strokeWidth=1;comic=0;fontSource=https%3A%2F%2Ffonts.googleapis.com%2Fcss%3Ffamily%3DRoboto;labelBackgroundColor=none;swimlaneFillColor=#B8D7FF;gradientColor=#6BB7BF;rounded=0;endFill=0;dashed=1;dashPattern=1 4;shape=arrow;" parent="1" source="147" target="84" edge="1">
                    <mxGeometry x="-0.7978" y="50" width="100" height="100" relative="1" as="geometry">
                        <mxPoint x="-70" y="1807.272727272727" as="sourcePoint"/>
                        <mxPoint x="-891.2765957446809" y="930" as="targetPoint"/>
                        <mxPoint as="offset"/>
                    </mxGeometry>
                </mxCell>
                <mxCell id="161" value="" style="fontSize=12;html=1;endArrow=openThin;fontFamily=Helvetica;verticalAlign=top;fillColor=#12FFF7;strokeColor=#1A595E;fontColor=#124528;fontStyle=1;strokeWidth=1;comic=0;fontSource=https%3A%2F%2Ffonts.googleapis.com%2Fcss%3Ffamily%3DRoboto;labelBackgroundColor=none;swimlaneFillColor=#B8D7FF;gradientColor=#6BB7BF;rounded=0;endFill=0;dashed=1;dashPattern=1 4;shape=arrow;" parent="1" source="147" target="121" edge="1">
                    <mxGeometry x="-0.7978" y="50" width="100" height="100" relative="1" as="geometry">
                        <mxPoint x="-60" y="1817.272727272727" as="sourcePoint"/>
                        <mxPoint x="-30.60773480662965" y="850" as="targetPoint"/>
                        <mxPoint as="offset"/>
                    </mxGeometry>
                </mxCell>
                <mxCell id="162" value="" style="fontSize=12;html=1;endArrow=openThin;fontFamily=Helvetica;verticalAlign=top;fillColor=#12FFF7;strokeColor=#1A595E;fontColor=#124528;fontStyle=1;strokeWidth=1;comic=0;fontSource=https%3A%2F%2Ffonts.googleapis.com%2Fcss%3Ffamily%3DRoboto;labelBackgroundColor=none;swimlaneFillColor=#B8D7FF;gradientColor=#6BB7BF;rounded=0;endFill=0;dashed=1;dashPattern=1 4;shape=arrow;" parent="1" source="147" target="123" edge="1">
                    <mxGeometry x="-0.7978" y="50" width="100" height="100" relative="1" as="geometry">
                        <mxPoint x="-50" y="1827.272727272727" as="sourcePoint"/>
                        <mxPoint x="-30.669710806696912" y="1250" as="targetPoint"/>
                        <mxPoint as="offset"/>
                    </mxGeometry>
                </mxCell>
                <mxCell id="163" value="" style="fontSize=12;html=1;endArrow=openThin;fontFamily=Helvetica;verticalAlign=top;fillColor=#12FFF7;strokeColor=#1A595E;fontColor=#124528;fontStyle=1;strokeWidth=1;comic=0;fontSource=https%3A%2F%2Ffonts.googleapis.com%2Fcss%3Ffamily%3DRoboto;labelBackgroundColor=none;swimlaneFillColor=#B8D7FF;gradientColor=#6BB7BF;rounded=0;endFill=0;dashed=1;dashPattern=1 4;shape=arrow;" parent="1" source="147" target="111" edge="1">
                    <mxGeometry x="-0.7978" y="50" width="100" height="100" relative="1" as="geometry">
                        <mxPoint x="-40" y="1837.272727272727" as="sourcePoint"/>
                        <mxPoint x="85.0689655172414" y="1330" as="targetPoint"/>
                        <mxPoint as="offset"/>
                    </mxGeometry>
                </mxCell>
                <mxCell id="164" value="" style="fontSize=12;html=1;endArrow=openThin;fontFamily=Helvetica;verticalAlign=top;fillColor=#12FFF7;strokeColor=#1A595E;fontColor=#124528;fontStyle=1;strokeWidth=1;comic=0;fontSource=https%3A%2F%2Ffonts.googleapis.com%2Fcss%3Ffamily%3DRoboto;labelBackgroundColor=none;swimlaneFillColor=#B8D7FF;gradientColor=#6BB7BF;rounded=0;endFill=0;dashed=1;dashPattern=1 4;shape=arrow;" parent="1" source="147" target="152" edge="1">
                    <mxGeometry x="-0.7978" y="50" width="100" height="100" relative="1" as="geometry">
                        <mxPoint x="-30" y="1847.272727272727" as="sourcePoint"/>
                        <mxPoint x="86.91228070175475" y="1090" as="targetPoint"/>
                        <mxPoint as="offset"/>
                    </mxGeometry>
                </mxCell>
                <mxCell id="165" value="" style="fontSize=12;html=1;endArrow=openThin;fontFamily=Helvetica;verticalAlign=top;fillColor=#12FFF7;strokeColor=#1A595E;fontColor=#124528;fontStyle=1;strokeWidth=1;comic=0;fontSource=https%3A%2F%2Ffonts.googleapis.com%2Fcss%3Ffamily%3DRoboto;labelBackgroundColor=none;swimlaneFillColor=#B8D7FF;gradientColor=#6BB7BF;rounded=0;endFill=0;dashed=1;dashPattern=1 4;shape=arrow;" parent="1" source="147" target="128" edge="1">
                    <mxGeometry x="-0.7978" y="50" width="100" height="100" relative="1" as="geometry">
                        <mxPoint x="-20" y="1857.272727272727" as="sourcePoint"/>
                        <mxPoint x="556.9939879759522" y="970" as="targetPoint"/>
                        <mxPoint as="offset"/>
                    </mxGeometry>
                </mxCell>
                <mxCell id="116" value="" style="fontSize=12;html=1;endArrow=openThin;fontFamily=Roboto;verticalAlign=top;fillColor=#CCE5FF;strokeColor=#563B8C;fontColor=#443454;fontStyle=1;startSize=40;strokeWidth=2;comic=0;fontSource=https%3A%2F%2Ffonts.googleapis.com%2Fcss%3Ffamily%3DRoboto;labelBackgroundColor=none;swimlaneFillColor=#B8D7FF;gradientColor=#CCCCFF;rounded=0;endFill=0;" parent="1" source="62" target="115" edge="1">
                    <mxGeometry width="100" height="100" relative="1" as="geometry">
                        <mxPoint x="-590" y="530" as="sourcePoint"/>
                        <mxPoint x="-590" y="610" as="targetPoint"/>
                    </mxGeometry>
                </mxCell>
                <mxCell id="91" value="" style="fontSize=12;html=1;endArrow=openThin;fontFamily=Roboto;verticalAlign=top;fillColor=#CCE5FF;strokeColor=#563B8C;fontColor=#443454;fontStyle=1;startSize=40;strokeWidth=2;comic=0;fontSource=https%3A%2F%2Ffonts.googleapis.com%2Fcss%3Ffamily%3DRoboto;labelBackgroundColor=none;swimlaneFillColor=#B8D7FF;gradientColor=#CCCCFF;rounded=0;endFill=0;" parent="1" source="60" target="90" edge="1">
                    <mxGeometry width="100" height="100" relative="1" as="geometry">
                        <mxPoint x="-470" y="570" as="sourcePoint"/>
                        <mxPoint x="-470" y="730" as="targetPoint"/>
                    </mxGeometry>
                </mxCell>
                <mxCell id="97" value="" style="fontSize=12;html=1;endArrow=openThin;fontFamily=Roboto;verticalAlign=top;fillColor=#CCE5FF;strokeColor=#563B8C;fontColor=#443454;fontStyle=1;startSize=40;strokeWidth=2;comic=0;fontSource=https%3A%2F%2Ffonts.googleapis.com%2Fcss%3Ffamily%3DRoboto;labelBackgroundColor=none;swimlaneFillColor=#B8D7FF;gradientColor=#CCCCFF;rounded=0;endFill=0;" parent="1" source="60" target="95" edge="1">
                    <mxGeometry width="100" height="100" relative="1" as="geometry">
                        <mxPoint x="-467.1428571428571" y="570" as="sourcePoint"/>
                        <mxPoint x="-432.8571428571429" y="810" as="targetPoint"/>
                    </mxGeometry>
                </mxCell>
                <mxCell id="98" value="" style="fontSize=12;html=1;endArrow=openThin;fontFamily=Roboto;verticalAlign=top;fillColor=#CCE5FF;strokeColor=#563B8C;fontColor=#443454;fontStyle=1;startSize=40;strokeWidth=2;comic=0;fontSource=https%3A%2F%2Ffonts.googleapis.com%2Fcss%3Ffamily%3DRoboto;labelBackgroundColor=none;swimlaneFillColor=#B8D7FF;gradientColor=#CCCCFF;rounded=0;endFill=0;" parent="1" source="60" target="96" edge="1">
                    <mxGeometry width="100" height="100" relative="1" as="geometry">
                        <mxPoint x="-467.7777777777776" y="570" as="sourcePoint"/>
                        <mxPoint x="-432.2222222222224" y="890" as="targetPoint"/>
                    </mxGeometry>
                </mxCell>
                <mxCell id="73" value="require_once" style="fontSize=12;html=1;endArrow=openThin;fontFamily=Roboto;verticalAlign=top;fillColor=#CCE5FF;strokeColor=#195E37;fontColor=#124528;fontStyle=1;startSize=40;strokeWidth=2;comic=0;fontSource=https%3A%2F%2Ffonts.googleapis.com%2Fcss%3Ffamily%3DRoboto;labelBackgroundColor=none;swimlaneFillColor=#B8D7FF;gradientColor=#CCCCFF;rounded=0;endFill=0;dashed=1;dashPattern=1 4;" parent="1" source="48" target="71" edge="1">
                    <mxGeometry x="0.8023" y="-14" width="100" height="100" relative="1" as="geometry">
                        <mxPoint x="-580" y="650" as="sourcePoint"/>
                        <mxPoint x="-580" y="770" as="targetPoint"/>
                        <mxPoint as="offset"/>
                    </mxGeometry>
                </mxCell>
                <mxCell id="47" value="/ (root)" style="rounded=1;whiteSpace=wrap;html=1;fontFamily=Roboto;verticalAlign=top;fillColor=#CCE5FF;strokeColor=#8064B8;fontColor=#443454;fontStyle=1;startSize=40;strokeWidth=2;comic=0;fontSource=https%3A%2F%2Ffonts.googleapis.com%2Fcss%3Ffamily%3DRoboto;labelBackgroundColor=none;swimlaneFillColor=#B8D7FF;gradientColor=#CCCCFF;" parent="1" vertex="1">
                    <mxGeometry x="-520" y="240" width="80" height="40" as="geometry"/>
                </mxCell>
                <mxCell id="48" value="index.php" style="rounded=1;whiteSpace=wrap;html=1;fontFamily=Roboto;verticalAlign=top;fillColor=#C7FFEA;strokeColor=#195E37;fontColor=#443454;fontStyle=1;startSize=40;strokeWidth=2;comic=0;fontSource=https%3A%2F%2Ffonts.googleapis.com%2Fcss%3Ffamily%3DRoboto;labelBackgroundColor=none;swimlaneFillColor=#B8D7FF;gradientColor=#89D4A4;" parent="1" vertex="1">
                    <mxGeometry x="-240" y="360" width="80" height="40" as="geometry"/>
                </mxCell>
                <mxCell id="49" value="/app/" style="rounded=1;whiteSpace=wrap;html=1;fontFamily=Roboto;verticalAlign=top;fillColor=#CCE5FF;strokeColor=#8064B8;fontColor=#443454;fontStyle=1;startSize=40;strokeWidth=2;comic=0;fontSource=https%3A%2F%2Ffonts.googleapis.com%2Fcss%3Ffamily%3DRoboto;labelBackgroundColor=none;swimlaneFillColor=#B8D7FF;gradientColor=#CCCCFF;" parent="1" vertex="1">
                    <mxGeometry x="-520" y="360" width="80" height="40" as="geometry"/>
                </mxCell>
                <mxCell id="50" value="" style="fontSize=12;html=1;endArrow=openThin;fontFamily=Roboto;verticalAlign=top;fillColor=#CCE5FF;strokeColor=#563B8C;fontColor=#443454;fontStyle=1;startSize=40;strokeWidth=2;comic=0;fontSource=https%3A%2F%2Ffonts.googleapis.com%2Fcss%3Ffamily%3DRoboto;labelBackgroundColor=none;swimlaneFillColor=#B8D7FF;gradientColor=#CCCCFF;rounded=0;endFill=0;" parent="1" source="47" target="48" edge="1">
                    <mxGeometry width="100" height="100" relative="1" as="geometry">
                        <mxPoint x="-650" y="167.0000000000001" as="sourcePoint"/>
                        <mxPoint x="-550" y="247.0000000000001" as="targetPoint"/>
                    </mxGeometry>
                </mxCell>
                <mxCell id="51" value="" style="fontSize=12;html=1;endArrow=openThin;fontFamily=Roboto;verticalAlign=top;fillColor=#CCE5FF;strokeColor=#563B8C;fontColor=#443454;fontStyle=1;startSize=40;strokeWidth=2;comic=0;fontSource=https%3A%2F%2Ffonts.googleapis.com%2Fcss%3Ffamily%3DRoboto;labelBackgroundColor=none;swimlaneFillColor=#B8D7FF;gradientColor=#CCCCFF;rounded=0;endFill=0;" parent="1" source="47" target="49" edge="1">
                    <mxGeometry width="100" height="100" relative="1" as="geometry">
                        <mxPoint x="-710" y="410" as="sourcePoint"/>
                        <mxPoint x="-640" y="490" as="targetPoint"/>
                    </mxGeometry>
                </mxCell>
                <mxCell id="52" value="/public/" style="rounded=1;whiteSpace=wrap;html=1;fontFamily=Roboto;verticalAlign=top;fillColor=#CCE5FF;strokeColor=#8064B8;fontColor=#443454;fontStyle=1;startSize=40;strokeWidth=2;comic=0;fontSource=https%3A%2F%2Ffonts.googleapis.com%2Fcss%3Ffamily%3DRoboto;labelBackgroundColor=none;swimlaneFillColor=#B8D7FF;gradientColor=#CCCCFF;" parent="1" vertex="1">
                    <mxGeometry x="480" y="360" width="80" height="40" as="geometry"/>
                </mxCell>
                <mxCell id="53" value="" style="fontSize=12;html=1;endArrow=openThin;fontFamily=Roboto;verticalAlign=top;fillColor=#CCE5FF;strokeColor=#563B8C;fontColor=#443454;fontStyle=1;startSize=40;strokeWidth=2;comic=0;fontSource=https%3A%2F%2Ffonts.googleapis.com%2Fcss%3Ffamily%3DRoboto;labelBackgroundColor=none;swimlaneFillColor=#B8D7FF;gradientColor=#CCCCFF;rounded=0;endFill=0;" parent="1" source="47" target="52" edge="1">
                    <mxGeometry width="100" height="100" relative="1" as="geometry">
                        <mxPoint x="-710" y="390" as="sourcePoint"/>
                        <mxPoint x="-670" y="510" as="targetPoint"/>
                    </mxGeometry>
                </mxCell>
                <mxCell id="54" value="acl/" style="rounded=1;whiteSpace=wrap;html=1;fontFamily=Roboto;verticalAlign=top;fillColor=#CCE5FF;strokeColor=#8064B8;fontColor=#443454;fontStyle=1;startSize=40;strokeWidth=2;comic=0;fontSource=https%3A%2F%2Ffonts.googleapis.com%2Fcss%3Ffamily%3DRoboto;labelBackgroundColor=none;swimlaneFillColor=#B8D7FF;gradientColor=#CCCCFF;" parent="1" vertex="1">
                    <mxGeometry x="-960" y="480" width="80" height="40" as="geometry"/>
                </mxCell>
                <mxCell id="55" value="" style="fontSize=12;html=1;endArrow=openThin;fontFamily=Roboto;verticalAlign=top;fillColor=#CCE5FF;strokeColor=#563B8C;fontColor=#443454;fontStyle=1;startSize=40;strokeWidth=2;comic=0;fontSource=https%3A%2F%2Ffonts.googleapis.com%2Fcss%3Ffamily%3DRoboto;labelBackgroundColor=none;swimlaneFillColor=#B8D7FF;gradientColor=#CCCCFF;rounded=0;endFill=0;" parent="1" source="49" target="54" edge="1">
                    <mxGeometry width="100" height="100" relative="1" as="geometry">
                        <mxPoint x="-510" y="350" as="sourcePoint"/>
                        <mxPoint x="-749.9411764705883" y="410" as="targetPoint"/>
                    </mxGeometry>
                </mxCell>
                <mxCell id="56" value="config/" style="rounded=1;whiteSpace=wrap;html=1;fontFamily=Roboto;verticalAlign=top;fillColor=#CCE5FF;strokeColor=#8064B8;fontColor=#443454;fontStyle=1;startSize=40;strokeWidth=2;comic=0;fontSource=https%3A%2F%2Ffonts.googleapis.com%2Fcss%3Ffamily%3DRoboto;labelBackgroundColor=none;swimlaneFillColor=#B8D7FF;gradientColor=#CCCCFF;" parent="1" vertex="1">
                    <mxGeometry x="-1120" y="480" width="80" height="40" as="geometry"/>
                </mxCell>
                <mxCell id="57" value="" style="fontSize=12;html=1;endArrow=openThin;fontFamily=Roboto;verticalAlign=top;fillColor=#CCE5FF;strokeColor=#563B8C;fontColor=#443454;fontStyle=1;startSize=40;strokeWidth=2;comic=0;fontSource=https%3A%2F%2Ffonts.googleapis.com%2Fcss%3Ffamily%3DRoboto;labelBackgroundColor=none;swimlaneFillColor=#B8D7FF;gradientColor=#CCCCFF;rounded=0;endFill=0;" parent="1" source="49" target="56" edge="1">
                    <mxGeometry width="100" height="100" relative="1" as="geometry">
                        <mxPoint x="-589.9411764705883" y="450" as="sourcePoint"/>
                        <mxPoint x="-629.9411764705883" y="530" as="targetPoint"/>
                    </mxGeometry>
                </mxCell>
                <mxCell id="58" value="controllers/" style="rounded=1;whiteSpace=wrap;html=1;fontFamily=Roboto;verticalAlign=top;fillColor=#CCE5FF;strokeColor=#8064B8;fontColor=#443454;fontStyle=1;startSize=40;strokeWidth=2;comic=0;fontSource=https%3A%2F%2Ffonts.googleapis.com%2Fcss%3Ffamily%3DRoboto;labelBackgroundColor=none;swimlaneFillColor=#B8D7FF;gradientColor=#CCCCFF;" parent="1" vertex="1">
                    <mxGeometry x="-80" y="480" width="80" height="40" as="geometry"/>
                </mxCell>
                <mxCell id="59" value="" style="fontSize=12;html=1;endArrow=openThin;fontFamily=Roboto;verticalAlign=top;fillColor=#CCE5FF;strokeColor=#563B8C;fontColor=#443454;fontStyle=1;startSize=40;strokeWidth=2;comic=0;fontSource=https%3A%2F%2Ffonts.googleapis.com%2Fcss%3Ffamily%3DRoboto;labelBackgroundColor=none;swimlaneFillColor=#B8D7FF;gradientColor=#CCCCFF;rounded=0;endFill=0;" parent="1" source="49" target="58" edge="1">
                    <mxGeometry width="100" height="100" relative="1" as="geometry">
                        <mxPoint x="-589.9411764705883" y="450" as="sourcePoint"/>
                        <mxPoint x="-529.9411764705883" y="530" as="targetPoint"/>
                    </mxGeometry>
                </mxCell>
                <mxCell id="60" value="core/" style="rounded=1;whiteSpace=wrap;html=1;fontFamily=Roboto;verticalAlign=top;fillColor=#CCE5FF;strokeColor=#8064B8;fontColor=#443454;fontStyle=1;startSize=40;strokeWidth=2;comic=0;fontSource=https%3A%2F%2Ffonts.googleapis.com%2Fcss%3Ffamily%3DRoboto;labelBackgroundColor=none;swimlaneFillColor=#B8D7FF;gradientColor=#CCCCFF;" parent="1" vertex="1">
                    <mxGeometry x="-520" y="480" width="80" height="40" as="geometry"/>
                </mxCell>
                <mxCell id="61" value="db/" style="rounded=1;whiteSpace=wrap;html=1;fontFamily=Roboto;verticalAlign=top;fillColor=#CCE5FF;strokeColor=#8064B8;fontColor=#443454;fontStyle=1;startSize=40;strokeWidth=2;comic=0;fontSource=https%3A%2F%2Ffonts.googleapis.com%2Fcss%3Ffamily%3DRoboto;labelBackgroundColor=none;swimlaneFillColor=#B8D7FF;gradientColor=#CCCCFF;" parent="1" vertex="1">
                    <mxGeometry x="-840" y="480" width="80" height="40" as="geometry"/>
                </mxCell>
                <mxCell id="62" value="lib/" style="rounded=1;whiteSpace=wrap;html=1;fontFamily=Roboto;verticalAlign=top;fillColor=#CCE5FF;strokeColor=#8064B8;fontColor=#443454;fontStyle=1;startSize=40;strokeWidth=2;comic=0;fontSource=https%3A%2F%2Ffonts.googleapis.com%2Fcss%3Ffamily%3DRoboto;labelBackgroundColor=none;swimlaneFillColor=#B8D7FF;gradientColor=#CCCCFF;" parent="1" vertex="1">
                    <mxGeometry x="-680" y="480" width="80" height="40" as="geometry"/>
                </mxCell>
                <mxCell id="63" value="models/" style="rounded=1;whiteSpace=wrap;html=1;fontFamily=Roboto;verticalAlign=top;fillColor=#CCE5FF;strokeColor=#8064B8;fontColor=#443454;fontStyle=1;startSize=40;strokeWidth=2;comic=0;fontSource=https%3A%2F%2Ffonts.googleapis.com%2Fcss%3Ffamily%3DRoboto;labelBackgroundColor=none;swimlaneFillColor=#B8D7FF;gradientColor=#CCCCFF;" parent="1" vertex="1">
                    <mxGeometry x="40" y="480" width="80" height="40" as="geometry"/>
                </mxCell>
                <mxCell id="64" value="views/" style="rounded=1;whiteSpace=wrap;html=1;fontFamily=Roboto;verticalAlign=top;fillColor=#CCE5FF;strokeColor=#8064B8;fontColor=#443454;fontStyle=1;startSize=40;strokeWidth=2;comic=0;fontSource=https%3A%2F%2Ffonts.googleapis.com%2Fcss%3Ffamily%3DRoboto;labelBackgroundColor=none;swimlaneFillColor=#B8D7FF;gradientColor=#CCCCFF;" parent="1" vertex="1">
                    <mxGeometry x="260" y="480" width="80" height="40" as="geometry"/>
                </mxCell>
                <mxCell id="65" value="" style="fontSize=12;html=1;endArrow=openThin;fontFamily=Roboto;verticalAlign=top;fillColor=#CCE5FF;strokeColor=#563B8C;fontColor=#443454;fontStyle=1;startSize=40;strokeWidth=2;comic=0;fontSource=https%3A%2F%2Ffonts.googleapis.com%2Fcss%3Ffamily%3DRoboto;labelBackgroundColor=none;swimlaneFillColor=#B8D7FF;gradientColor=#CCCCFF;rounded=0;endFill=0;" parent="1" source="49" target="63" edge="1">
                    <mxGeometry width="100" height="100" relative="1" as="geometry">
                        <mxPoint x="-550" y="430" as="sourcePoint"/>
                        <mxPoint x="-439.9411764705883" y="530" as="targetPoint"/>
                    </mxGeometry>
                </mxCell>
                <mxCell id="66" value="" style="fontSize=12;html=1;endArrow=openThin;fontFamily=Roboto;verticalAlign=top;fillColor=#CCE5FF;strokeColor=#563B8C;fontColor=#443454;fontStyle=1;startSize=40;strokeWidth=2;comic=0;fontSource=https%3A%2F%2Ffonts.googleapis.com%2Fcss%3Ffamily%3DRoboto;labelBackgroundColor=none;swimlaneFillColor=#B8D7FF;gradientColor=#CCCCFF;rounded=0;endFill=0;" parent="1" source="49" target="64" edge="1">
                    <mxGeometry width="100" height="100" relative="1" as="geometry">
                        <mxPoint x="-589.9411764705883" y="450" as="sourcePoint"/>
                        <mxPoint x="-549.9411764705883" y="530" as="targetPoint"/>
                    </mxGeometry>
                </mxCell>
                <mxCell id="67" value="" style="fontSize=12;html=1;endArrow=openThin;fontFamily=Roboto;verticalAlign=top;fillColor=#CCE5FF;strokeColor=#563B8C;fontColor=#443454;fontStyle=1;startSize=40;strokeWidth=2;comic=0;fontSource=https%3A%2F%2Ffonts.googleapis.com%2Fcss%3Ffamily%3DRoboto;labelBackgroundColor=none;swimlaneFillColor=#B8D7FF;gradientColor=#CCCCFF;rounded=0;endFill=0;" parent="1" source="49" target="61" edge="1">
                    <mxGeometry width="100" height="100" relative="1" as="geometry">
                        <mxPoint x="-569.1666666666667" y="410" as="sourcePoint"/>
                        <mxPoint x="-760.8333333333333" y="610" as="targetPoint"/>
                    </mxGeometry>
                </mxCell>
                <mxCell id="68" value="" style="fontSize=12;html=1;endArrow=openThin;fontFamily=Roboto;verticalAlign=top;fillColor=#CCE5FF;strokeColor=#563B8C;fontColor=#443454;fontStyle=1;startSize=40;strokeWidth=2;comic=0;fontSource=https%3A%2F%2Ffonts.googleapis.com%2Fcss%3Ffamily%3DRoboto;labelBackgroundColor=none;swimlaneFillColor=#B8D7FF;gradientColor=#CCCCFF;rounded=0;endFill=0;" parent="1" source="49" target="62" edge="1">
                    <mxGeometry width="100" height="100" relative="1" as="geometry">
                        <mxPoint x="-559.1666666666667" y="420" as="sourcePoint"/>
                        <mxPoint x="-659.4444444444446" y="610" as="targetPoint"/>
                    </mxGeometry>
                </mxCell>
                <mxCell id="69" value="" style="fontSize=12;html=1;endArrow=openThin;fontFamily=Roboto;verticalAlign=top;fillColor=#CCE5FF;strokeColor=#563B8C;fontColor=#443454;fontStyle=1;startSize=40;strokeWidth=2;comic=0;fontSource=https%3A%2F%2Ffonts.googleapis.com%2Fcss%3Ffamily%3DRoboto;labelBackgroundColor=none;swimlaneFillColor=#B8D7FF;gradientColor=#CCCCFF;rounded=0;endFill=0;" parent="1" source="49" target="60" edge="1">
                    <mxGeometry width="100" height="100" relative="1" as="geometry">
                        <mxPoint x="-549.1666666666667" y="430" as="sourcePoint"/>
                        <mxPoint x="-576.9166666666667" y="610" as="targetPoint"/>
                    </mxGeometry>
                </mxCell>
                <mxCell id="71" value="dev.php" style="rounded=1;whiteSpace=wrap;html=1;fontFamily=Roboto;verticalAlign=top;fillColor=#C7FFEA;strokeColor=#195E37;fontColor=#443454;fontStyle=1;startSize=40;strokeWidth=2;comic=0;fontSource=https%3A%2F%2Ffonts.googleapis.com%2Fcss%3Ffamily%3DRoboto;labelBackgroundColor=none;swimlaneFillColor=#B8D7FF;gradientColor=#89D4A4;" parent="1" vertex="1">
                    <mxGeometry x="-620" y="600" width="80" height="40" as="geometry"/>
                </mxCell>
                <mxCell id="75" value="Router.php" style="rounded=1;whiteSpace=wrap;html=1;fontFamily=Roboto;verticalAlign=top;fillColor=#C7FFEA;strokeColor=#195E37;fontColor=#443454;fontStyle=1;startSize=40;strokeWidth=2;comic=0;fontSource=https%3A%2F%2Ffonts.googleapis.com%2Fcss%3Ffamily%3DRoboto;labelBackgroundColor=none;swimlaneFillColor=#B8D7FF;gradientColor=#89D4A4;" parent="1" vertex="1">
                    <mxGeometry x="-520" y="720" width="80" height="40" as="geometry"/>
                </mxCell>
                <mxCell id="76" value="" style="fontSize=12;html=1;endArrow=openThin;fontFamily=Roboto;verticalAlign=top;fillColor=#CCE5FF;strokeColor=#563B8C;fontColor=#443454;fontStyle=1;startSize=40;strokeWidth=2;comic=0;fontSource=https%3A%2F%2Ffonts.googleapis.com%2Fcss%3Ffamily%3DRoboto;labelBackgroundColor=none;swimlaneFillColor=#B8D7FF;gradientColor=#CCCCFF;rounded=0;endFill=0;" parent="1" source="60" target="75" edge="1">
                    <mxGeometry width="100" height="100" relative="1" as="geometry">
                        <mxPoint x="-470.0000000000002" y="370" as="sourcePoint"/>
                        <mxPoint x="-470.0000000000002" y="610" as="targetPoint"/>
                    </mxGeometry>
                </mxCell>
                <mxCell id="78" value="$$router = new Router&lt;br&gt;$$router -&amp;gt; run()" style="fontSize=12;html=1;endArrow=openThin;fontFamily=Roboto;verticalAlign=top;fillColor=#CCE5FF;strokeColor=#195E37;fontColor=#124528;fontStyle=1;startSize=40;strokeWidth=2;comic=0;fontSource=https%3A%2F%2Ffonts.googleapis.com%2Fcss%3Ffamily%3DRoboto;labelBackgroundColor=none;swimlaneFillColor=#B8D7FF;gradientColor=#CCCCFF;rounded=0;endFill=0;dashed=1;" parent="1" source="48" target="75" edge="1">
                    <mxGeometry x="0.1491" y="-11" width="100" height="100" relative="1" as="geometry">
                        <mxPoint x="-93.18181818181824" y="370" as="sourcePoint"/>
                        <mxPoint x="-556.8181818181818" y="770" as="targetPoint"/>
                        <mxPoint as="offset"/>
                    </mxGeometry>
                </mxCell>
                <mxCell id="79" value="routes.php" style="rounded=1;whiteSpace=wrap;html=1;fontFamily=Roboto;verticalAlign=top;fillColor=#C7FFEA;strokeColor=#195E37;fontColor=#443454;fontStyle=1;startSize=40;strokeWidth=2;comic=0;fontSource=https%3A%2F%2Ffonts.googleapis.com%2Fcss%3Ffamily%3DRoboto;labelBackgroundColor=none;swimlaneFillColor=#B8D7FF;gradientColor=#89D4A4;" parent="1" vertex="1">
                    <mxGeometry x="-1060" y="760" width="80" height="40" as="geometry"/>
                </mxCell>
                <mxCell id="81" value="" style="fontSize=12;html=1;endArrow=openThin;fontFamily=Roboto;verticalAlign=top;fillColor=#CCE5FF;strokeColor=#563B8C;fontColor=#443454;fontStyle=1;startSize=40;strokeWidth=2;comic=0;fontSource=https%3A%2F%2Ffonts.googleapis.com%2Fcss%3Ffamily%3DRoboto;labelBackgroundColor=none;swimlaneFillColor=#B8D7FF;gradientColor=#CCCCFF;rounded=0;endFill=0;" parent="1" source="62" target="71" edge="1">
                    <mxGeometry width="100" height="100" relative="1" as="geometry">
                        <mxPoint x="-470" y="650" as="sourcePoint"/>
                        <mxPoint x="-580" y="610" as="targetPoint"/>
                    </mxGeometry>
                </mxCell>
                <mxCell id="82" value="" style="fontSize=12;html=1;endArrow=openThin;fontFamily=Roboto;verticalAlign=top;fillColor=#CCE5FF;strokeColor=#563B8C;fontColor=#443454;fontStyle=1;startSize=40;strokeWidth=2;comic=0;fontSource=https%3A%2F%2Ffonts.googleapis.com%2Fcss%3Ffamily%3DRoboto;labelBackgroundColor=none;swimlaneFillColor=#B8D7FF;gradientColor=#CCCCFF;rounded=0;endFill=0;" parent="1" source="56" target="79" edge="1">
                    <mxGeometry width="100" height="100" relative="1" as="geometry">
                        <mxPoint x="-710" y="650" as="sourcePoint"/>
                        <mxPoint x="-710" y="770" as="targetPoint"/>
                    </mxGeometry>
                </mxCell>
                <mxCell id="83" value="$routesArr [] = require *&lt;br&gt;$$routes[]=*$routeParams" style="fontSize=12;html=1;endArrow=openThin;fontFamily=Roboto;verticalAlign=top;fillColor=#CCE5FF;strokeColor=#195E37;fontColor=#124528;fontStyle=1;startSize=40;strokeWidth=2;comic=0;fontSource=https%3A%2F%2Ffonts.googleapis.com%2Fcss%3Ffamily%3DRoboto;labelBackgroundColor=none;swimlaneFillColor=#B8D7FF;gradientColor=#CCCCFF;rounded=0;endFill=0;dashed=1;dashPattern=1 4;" parent="1" source="75" target="79" edge="1">
                    <mxGeometry x="0.2899" y="-45" width="100" height="100" relative="1" as="geometry">
                        <mxPoint x="-93.18181818181847" y="370" as="sourcePoint"/>
                        <mxPoint x="-556.8181818181818" y="770" as="targetPoint"/>
                        <mxPoint as="offset"/>
                    </mxGeometry>
                </mxCell>
                <mxCell id="84" value="&amp;lt;controller&amp;gt;&lt;br&gt;Controller.php" style="rounded=1;whiteSpace=wrap;html=1;fontFamily=Roboto;verticalAlign=top;fillColor=#C7FFEA;strokeColor=#195E37;fontColor=#443454;fontStyle=1;startSize=40;strokeWidth=2;comic=0;fontSource=https%3A%2F%2Ffonts.googleapis.com%2Fcss%3Ffamily%3DRoboto;labelBackgroundColor=none;swimlaneFillColor=#B8D7FF;gradientColor=#89D4A4;" parent="1" vertex="1">
                    <mxGeometry x="-80" y="800" width="80" height="40" as="geometry"/>
                </mxCell>
                <mxCell id="89" value="" style="fontSize=12;html=1;endArrow=openThin;fontFamily=Roboto;verticalAlign=top;fillColor=#CCE5FF;strokeColor=#563B8C;fontColor=#443454;fontStyle=1;startSize=40;strokeWidth=2;comic=0;fontSource=https%3A%2F%2Ffonts.googleapis.com%2Fcss%3Ffamily%3DRoboto;labelBackgroundColor=none;swimlaneFillColor=#B8D7FF;gradientColor=#CCCCFF;rounded=0;endFill=0;" parent="1" source="58" target="84" edge="1">
                    <mxGeometry width="100" height="100" relative="1" as="geometry">
                        <mxPoint x="-430" y="570" as="sourcePoint"/>
                        <mxPoint x="-430" y="730" as="targetPoint"/>
                    </mxGeometry>
                </mxCell>
                <mxCell id="90" value="Controller.php" style="rounded=1;whiteSpace=wrap;html=1;fontFamily=Roboto;verticalAlign=top;fillColor=#C7FFEA;strokeColor=#195E37;fontColor=#443454;fontStyle=1;startSize=40;strokeWidth=2;comic=0;fontSource=https%3A%2F%2Ffonts.googleapis.com%2Fcss%3Ffamily%3DRoboto;labelBackgroundColor=none;swimlaneFillColor=#B8D7FF;gradientColor=#89D4A4;" parent="1" vertex="1">
                    <mxGeometry x="-240" y="840" width="80" height="40" as="geometry"/>
                </mxCell>
                <mxCell id="92" value="$$routeParams[]=*&lt;br&gt;new &amp;lt;controller&amp;gt;Controller($$routeParams)&lt;br&gt;&amp;lt;controller&amp;gt;Controller -&amp;gt; &amp;lt;action&amp;gt;Action()" style="fontSize=12;html=1;endArrow=openThin;fontFamily=Roboto;verticalAlign=top;fillColor=#CCE5FF;strokeColor=#195E37;fontColor=#124528;fontStyle=1;startSize=40;strokeWidth=2;comic=0;fontSource=https%3A%2F%2Ffonts.googleapis.com%2Fcss%3Ffamily%3DRoboto;labelBackgroundColor=none;swimlaneFillColor=#B8D7FF;gradientColor=#CCCCFF;rounded=0;endFill=0;dashed=1;" parent="1" source="75" target="84" edge="1">
                    <mxGeometry x="0.3716" y="73" width="100" height="100" relative="1" as="geometry">
                        <mxPoint x="-510" y="750" as="sourcePoint"/>
                        <mxPoint x="-830" y="750" as="targetPoint"/>
                        <mxPoint as="offset"/>
                    </mxGeometry>
                </mxCell>
                <mxCell id="94" value="extends" style="fontSize=12;html=1;endArrow=openThin;fontFamily=Roboto;verticalAlign=top;fillColor=#CCE5FF;strokeColor=#195E37;fontColor=#124528;fontStyle=1;startSize=40;strokeWidth=2;comic=0;fontSource=https%3A%2F%2Ffonts.googleapis.com%2Fcss%3Ffamily%3DRoboto;labelBackgroundColor=none;swimlaneFillColor=#B8D7FF;gradientColor=#CCCCFF;rounded=0;endFill=0;dashed=1;dashPattern=1 4;" parent="1" source="84" target="90" edge="1">
                    <mxGeometry x="0.1906" y="-2" width="100" height="100" relative="1" as="geometry">
                        <mxPoint x="-101.875" y="410" as="sourcePoint"/>
                        <mxPoint x="-548.125" y="690" as="targetPoint"/>
                        <mxPoint as="offset"/>
                    </mxGeometry>
                </mxCell>
                <mxCell id="95" value="View.php" style="rounded=1;whiteSpace=wrap;html=1;fontFamily=Roboto;verticalAlign=top;fillColor=#C7FFEA;strokeColor=#195E37;fontColor=#443454;fontStyle=1;startSize=40;strokeWidth=2;comic=0;fontSource=https%3A%2F%2Ffonts.googleapis.com%2Fcss%3Ffamily%3DRoboto;labelBackgroundColor=none;swimlaneFillColor=#B8D7FF;gradientColor=#89D4A4;" parent="1" vertex="1">
                    <mxGeometry x="-320" y="960" width="80" height="40" as="geometry"/>
                </mxCell>
                <mxCell id="96" value="Model.php" style="rounded=1;whiteSpace=wrap;html=1;fontFamily=Roboto;verticalAlign=top;fillColor=#C7FFEA;strokeColor=#195E37;fontColor=#443454;fontStyle=1;startSize=40;strokeWidth=2;comic=0;fontSource=https%3A%2F%2Ffonts.googleapis.com%2Fcss%3Ffamily%3DRoboto;labelBackgroundColor=none;swimlaneFillColor=#B8D7FF;gradientColor=#89D4A4;" parent="1" vertex="1">
                    <mxGeometry x="-400" y="1080" width="80" height="40" as="geometry"/>
                </mxCell>
                <mxCell id="100" value="&amp;lt;controller&amp;gt;&lt;br&gt;ACL.php" style="rounded=1;whiteSpace=wrap;html=1;fontFamily=Roboto;verticalAlign=top;fillColor=#C7FFEA;strokeColor=#195E37;fontColor=#443454;fontStyle=1;startSize=40;strokeWidth=2;comic=0;fontSource=https%3A%2F%2Ffonts.googleapis.com%2Fcss%3Ffamily%3DRoboto;labelBackgroundColor=none;swimlaneFillColor=#B8D7FF;gradientColor=#89D4A4;" parent="1" vertex="1">
                    <mxGeometry x="-960" y="880" width="80" height="40" as="geometry"/>
                </mxCell>
                <mxCell id="101" value="" style="fontSize=12;html=1;endArrow=openThin;fontFamily=Roboto;verticalAlign=top;fillColor=#CCE5FF;strokeColor=#563B8C;fontColor=#443454;fontStyle=1;startSize=40;strokeWidth=2;comic=0;fontSource=https%3A%2F%2Ffonts.googleapis.com%2Fcss%3Ffamily%3DRoboto;labelBackgroundColor=none;swimlaneFillColor=#B8D7FF;gradientColor=#CCCCFF;rounded=0;endFill=0;" parent="1" source="54" target="100" edge="1">
                    <mxGeometry width="100" height="100" relative="1" as="geometry">
                        <mxPoint x="-1030" y="530" as="sourcePoint"/>
                        <mxPoint x="-1030" y="730" as="targetPoint"/>
                    </mxGeometry>
                </mxCell>
                <mxCell id="102" value="$$acl [] = require &amp;lt;controller&amp;gt;ACL.php" style="fontSize=12;html=1;endArrow=openThin;fontFamily=Roboto;verticalAlign=top;fillColor=#CCE5FF;strokeColor=#195E37;fontColor=#124528;fontStyle=1;startSize=40;strokeWidth=2;comic=0;fontSource=https%3A%2F%2Ffonts.googleapis.com%2Fcss%3Ffamily%3DRoboto;labelBackgroundColor=none;swimlaneFillColor=#B8D7FF;gradientColor=#CCCCFF;rounded=0;endFill=0;dashed=1;dashPattern=1 4;" parent="1" source="90" target="100" edge="1">
                    <mxGeometry x="0.6003" y="-31" width="100" height="100" relative="1" as="geometry">
                        <mxPoint x="-510" y="750" as="sourcePoint"/>
                        <mxPoint x="-910" y="750" as="targetPoint"/>
                        <mxPoint as="offset"/>
                    </mxGeometry>
                </mxCell>
                <mxCell id="103" value="errors/" style="rounded=1;whiteSpace=wrap;html=1;fontFamily=Roboto;verticalAlign=top;fillColor=#CCE5FF;strokeColor=#8064B8;fontColor=#443454;fontStyle=1;startSize=40;strokeWidth=2;comic=0;fontSource=https%3A%2F%2Ffonts.googleapis.com%2Fcss%3Ffamily%3DRoboto;labelBackgroundColor=none;swimlaneFillColor=#B8D7FF;gradientColor=#CCCCFF;" parent="1" vertex="1">
                    <mxGeometry x="180" y="600" width="80" height="40" as="geometry"/>
                </mxCell>
                <mxCell id="104" value="&amp;lt;code&amp;gt;.php" style="rounded=1;whiteSpace=wrap;html=1;fontFamily=Roboto;verticalAlign=top;fillColor=#C7FFEA;strokeColor=#195E37;fontColor=#443454;fontStyle=1;startSize=40;strokeWidth=2;comic=0;fontSource=https%3A%2F%2Ffonts.googleapis.com%2Fcss%3Ffamily%3DRoboto;labelBackgroundColor=none;swimlaneFillColor=#B8D7FF;gradientColor=#89D4A4;" parent="1" vertex="1">
                    <mxGeometry x="180" y="880" width="80" height="40" as="geometry"/>
                </mxCell>
                <mxCell id="105" value="View :: errorCode(403)&lt;br&gt;$$view = new View($$routeParams)" style="fontSize=12;html=1;endArrow=openThin;fontFamily=Roboto;verticalAlign=top;fillColor=#CCE5FF;strokeColor=#195E37;fontColor=#124528;fontStyle=1;startSize=40;strokeWidth=2;comic=0;fontSource=https%3A%2F%2Ffonts.googleapis.com%2Fcss%3Ffamily%3DRoboto;labelBackgroundColor=none;swimlaneFillColor=#B8D7FF;gradientColor=#CCCCFF;rounded=0;endFill=0;dashed=1;" parent="1" source="90" target="95" edge="1">
                    <mxGeometry x="-0.5192" y="19" width="100" height="100" relative="1" as="geometry">
                        <mxPoint x="-430" y="793.9999999999998" as="sourcePoint"/>
                        <mxPoint x="-110" y="826" as="targetPoint"/>
                        <mxPoint as="offset"/>
                    </mxGeometry>
                </mxCell>
                <mxCell id="106" value="require *" style="fontSize=12;html=1;endArrow=openThin;fontFamily=Roboto;verticalAlign=top;fillColor=#CCE5FF;strokeColor=#195E37;fontColor=#124528;fontStyle=1;startSize=40;strokeWidth=2;comic=0;fontSource=https%3A%2F%2Ffonts.googleapis.com%2Fcss%3Ffamily%3DRoboto;labelBackgroundColor=none;swimlaneFillColor=#B8D7FF;gradientColor=#CCCCFF;rounded=0;endFill=0;dashed=1;dashPattern=1 4;" parent="1" source="141" target="104" edge="1">
                    <mxGeometry x="-0.6361" y="1" width="100" height="100" relative="1" as="geometry">
                        <mxPoint x="-310" y="872.8571428571429" as="sourcePoint"/>
                        <mxPoint x="-790" y="907.1428571428571" as="targetPoint"/>
                        <mxPoint as="offset"/>
                    </mxGeometry>
                </mxCell>
                <mxCell id="107" value="" style="fontSize=12;html=1;endArrow=openThin;fontFamily=Roboto;verticalAlign=top;fillColor=#CCE5FF;strokeColor=#563B8C;fontColor=#443454;fontStyle=1;startSize=40;strokeWidth=2;comic=0;fontSource=https%3A%2F%2Ffonts.googleapis.com%2Fcss%3Ffamily%3DRoboto;labelBackgroundColor=none;swimlaneFillColor=#B8D7FF;gradientColor=#CCCCFF;rounded=0;endFill=0;" parent="1" source="64" target="103" edge="1">
                    <mxGeometry width="100" height="100" relative="1" as="geometry">
                        <mxPoint x="-30" y="530" as="sourcePoint"/>
                        <mxPoint x="-30" y="770" as="targetPoint"/>
                    </mxGeometry>
                </mxCell>
                <mxCell id="108" value="" style="fontSize=12;html=1;endArrow=openThin;fontFamily=Roboto;verticalAlign=top;fillColor=#CCE5FF;strokeColor=#563B8C;fontColor=#443454;fontStyle=1;startSize=40;strokeWidth=2;comic=0;fontSource=https%3A%2F%2Ffonts.googleapis.com%2Fcss%3Ffamily%3DRoboto;labelBackgroundColor=none;swimlaneFillColor=#B8D7FF;gradientColor=#CCCCFF;rounded=0;endFill=0;" parent="1" source="103" target="104" edge="1">
                    <mxGeometry width="100" height="100" relative="1" as="geometry">
                        <mxPoint x="260" y="530" as="sourcePoint"/>
                        <mxPoint x="220" y="610" as="targetPoint"/>
                    </mxGeometry>
                </mxCell>
                <mxCell id="110" value="View :: errorCode(404)" style="fontSize=12;html=1;endArrow=openThin;fontFamily=Roboto;verticalAlign=top;fillColor=#CCE5FF;strokeColor=#195E37;fontColor=#124528;fontStyle=1;startSize=40;strokeWidth=2;comic=0;fontSource=https%3A%2F%2Ffonts.googleapis.com%2Fcss%3Ffamily%3DRoboto;labelBackgroundColor=none;swimlaneFillColor=#B8D7FF;gradientColor=#CCCCFF;rounded=0;endFill=0;dashed=1;" parent="1" source="75" target="95" edge="1">
                    <mxGeometry x="-1" y="-41" width="100" height="100" relative="1" as="geometry">
                        <mxPoint x="-464" y="800" as="sourcePoint"/>
                        <mxPoint x="-303.33333333333326" y="970" as="targetPoint"/>
                        <mxPoint x="-4" y="-6" as="offset"/>
                    </mxGeometry>
                </mxCell>
                <mxCell id="111" value="&amp;lt;controller&amp;gt;&lt;br&gt;Model.php" style="rounded=1;whiteSpace=wrap;html=1;fontFamily=Roboto;verticalAlign=top;fillColor=#C7FFEA;strokeColor=#195E37;fontColor=#443454;fontStyle=1;startSize=40;strokeWidth=2;comic=0;fontSource=https%3A%2F%2Ffonts.googleapis.com%2Fcss%3Ffamily%3DRoboto;labelBackgroundColor=none;swimlaneFillColor=#B8D7FF;gradientColor=#89D4A4;" parent="1" vertex="1">
                    <mxGeometry x="40" y="1040" width="80" height="40" as="geometry"/>
                </mxCell>
                <mxCell id="112" value="$$model = new &amp;lt;controller&amp;gt;Model" style="fontSize=12;html=1;endArrow=openThin;fontFamily=Roboto;verticalAlign=top;fillColor=#CCE5FF;strokeColor=#195E37;fontColor=#124528;fontStyle=1;startSize=40;strokeWidth=2;comic=0;fontSource=https%3A%2F%2Ffonts.googleapis.com%2Fcss%3Ffamily%3DRoboto;labelBackgroundColor=none;swimlaneFillColor=#B8D7FF;gradientColor=#CCCCFF;rounded=0;endFill=0;dashed=1;" parent="1" source="90" target="111" edge="1">
                    <mxGeometry x="0.6562" y="2" width="100" height="100" relative="1" as="geometry">
                        <mxPoint x="-276.66666666666674" y="890" as="sourcePoint"/>
                        <mxPoint x="-303.33333333333326" y="970" as="targetPoint"/>
                        <mxPoint as="offset"/>
                    </mxGeometry>
                </mxCell>
                <mxCell id="113" value="" style="fontSize=12;html=1;endArrow=openThin;fontFamily=Roboto;verticalAlign=top;fillColor=#CCE5FF;strokeColor=#563B8C;fontColor=#443454;fontStyle=1;startSize=40;strokeWidth=2;comic=0;fontSource=https%3A%2F%2Ffonts.googleapis.com%2Fcss%3Ffamily%3DRoboto;labelBackgroundColor=none;swimlaneFillColor=#B8D7FF;gradientColor=#CCCCFF;rounded=0;endFill=0;" parent="1" source="63" target="111" edge="1">
                    <mxGeometry width="100" height="100" relative="1" as="geometry">
                        <mxPoint x="-30" y="530" as="sourcePoint"/>
                        <mxPoint x="-30" y="770" as="targetPoint"/>
                    </mxGeometry>
                </mxCell>
                <mxCell id="114" value="extends" style="fontSize=12;html=1;endArrow=openThin;fontFamily=Roboto;verticalAlign=top;fillColor=#CCE5FF;strokeColor=#195E37;fontColor=#124528;fontStyle=1;startSize=40;strokeWidth=2;comic=0;fontSource=https%3A%2F%2Ffonts.googleapis.com%2Fcss%3Ffamily%3DRoboto;labelBackgroundColor=none;swimlaneFillColor=#B8D7FF;gradientColor=#CCCCFF;rounded=0;endFill=0;dashed=1;dashPattern=1 4;" parent="1" source="111" target="96" edge="1">
                    <mxGeometry x="0.461" y="-28" width="100" height="100" relative="1" as="geometry">
                        <mxPoint x="-110" y="837.9999999999998" as="sourcePoint"/>
                        <mxPoint x="-230" y="862" as="targetPoint"/>
                        <mxPoint as="offset"/>
                    </mxGeometry>
                </mxCell>
                <mxCell id="115" value="Db.php" style="rounded=1;whiteSpace=wrap;html=1;fontFamily=Roboto;verticalAlign=top;fillColor=#C7FFEA;strokeColor=#195E37;fontColor=#443454;fontStyle=1;startSize=40;strokeWidth=2;comic=0;fontSource=https%3A%2F%2Ffonts.googleapis.com%2Fcss%3Ffamily%3DRoboto;labelBackgroundColor=none;swimlaneFillColor=#B8D7FF;gradientColor=#89D4A4;" parent="1" vertex="1">
                    <mxGeometry x="-680" y="1120" width="80" height="40" as="geometry"/>
                </mxCell>
                <mxCell id="117" value="db.php" style="rounded=1;whiteSpace=wrap;html=1;fontFamily=Roboto;verticalAlign=top;fillColor=#C7FFEA;strokeColor=#195E37;fontColor=#443454;fontStyle=1;startSize=40;strokeWidth=2;comic=0;fontSource=https%3A%2F%2Ffonts.googleapis.com%2Fcss%3Ffamily%3DRoboto;labelBackgroundColor=none;swimlaneFillColor=#B8D7FF;gradientColor=#89D4A4;" parent="1" vertex="1">
                    <mxGeometry x="-1120" y="1160" width="80" height="40" as="geometry"/>
                </mxCell>
                <mxCell id="118" value="" style="fontSize=12;html=1;endArrow=openThin;fontFamily=Roboto;verticalAlign=top;fillColor=#CCE5FF;strokeColor=#563B8C;fontColor=#443454;fontStyle=1;startSize=40;strokeWidth=2;comic=0;fontSource=https%3A%2F%2Ffonts.googleapis.com%2Fcss%3Ffamily%3DRoboto;labelBackgroundColor=none;swimlaneFillColor=#B8D7FF;gradientColor=#CCCCFF;rounded=0;endFill=0;" parent="1" source="56" target="117" edge="1">
                    <mxGeometry width="100" height="100" relative="1" as="geometry">
                        <mxPoint x="-1065" y="530" as="sourcePoint"/>
                        <mxPoint x="-1070" y="1150" as="targetPoint"/>
                    </mxGeometry>
                </mxCell>
                <mxCell id="119" value="$config [] = require&amp;nbsp; *&lt;br&gt;$$dbLink = new PDO(*$config*)" style="fontSize=12;html=1;endArrow=openThin;fontFamily=Roboto;verticalAlign=top;fillColor=#CCE5FF;strokeColor=#195E37;fontColor=#124528;fontStyle=1;startSize=40;strokeWidth=2;comic=0;fontSource=https%3A%2F%2Ffonts.googleapis.com%2Fcss%3Ffamily%3DRoboto;labelBackgroundColor=none;swimlaneFillColor=#B8D7FF;gradientColor=#CCCCFF;rounded=0;endFill=0;dashed=1;dashPattern=1 4;" parent="1" source="115" target="117" edge="1">
                    <mxGeometry x="0.4759" y="-48" width="100" height="100" relative="1" as="geometry">
                        <mxPoint x="-310" y="832.5" as="sourcePoint"/>
                        <mxPoint x="-960" y="1160" as="targetPoint"/>
                        <mxPoint as="offset"/>
                    </mxGeometry>
                </mxCell>
                <mxCell id="120" value="$$db = new Db" style="fontSize=12;html=1;endArrow=openThin;fontFamily=Roboto;verticalAlign=top;fillColor=#CCE5FF;strokeColor=#195E37;fontColor=#124528;fontStyle=1;startSize=40;strokeWidth=2;comic=0;fontSource=https%3A%2F%2Ffonts.googleapis.com%2Fcss%3Ffamily%3DRoboto;labelBackgroundColor=none;swimlaneFillColor=#B8D7FF;gradientColor=#CCCCFF;rounded=0;endFill=0;dashed=1;" parent="1" source="96" target="115" edge="1">
                    <mxGeometry x="0.462" y="-27" width="100" height="100" relative="1" as="geometry">
                        <mxPoint x="-237.99999999999977" y="890" as="sourcePoint"/>
                        <mxPoint x="18" y="1050" as="targetPoint"/>
                        <mxPoint x="-1" as="offset"/>
                    </mxGeometry>
                </mxCell>
                <mxCell id="121" value="&amp;lt;action&amp;gt;&lt;br&gt;Action()" style="rounded=1;whiteSpace=wrap;html=1;fontFamily=Roboto;verticalAlign=top;fillColor=#FFCEB5;strokeColor=#5E271C;fontColor=#443454;fontStyle=1;startSize=40;strokeWidth=2;comic=0;fontSource=https%3A%2F%2Ffonts.googleapis.com%2Fcss%3Ffamily%3DRoboto;labelBackgroundColor=none;swimlaneFillColor=#B8D7FF;gradientColor=#BF8675;" parent="1" vertex="1">
                    <mxGeometry x="-80" y="1200" width="80" height="40" as="geometry"/>
                </mxCell>
                <mxCell id="122" value="" style="fontSize=12;html=1;endArrow=openThin;fontFamily=Roboto;verticalAlign=top;fillColor=#CCE5FF;strokeColor=#5E1818;fontColor=#124528;fontStyle=1;startSize=40;strokeWidth=2;comic=0;fontSource=https%3A%2F%2Ffonts.googleapis.com%2Fcss%3Ffamily%3DRoboto;labelBackgroundColor=none;swimlaneFillColor=#B8D7FF;gradientColor=#CCCCFF;rounded=0;endFill=0;dashed=1;" parent="1" source="84" target="121" edge="1">
                    <mxGeometry x="0.7342" y="5" width="100" height="100" relative="1" as="geometry">
                        <mxPoint x="-400" y="1170" as="sourcePoint"/>
                        <mxPoint x="30" y="1390" as="targetPoint"/>
                        <mxPoint as="offset"/>
                    </mxGeometry>
                </mxCell>
                <mxCell id="123" value="&amp;lt;method&amp;gt;()" style="rounded=1;whiteSpace=wrap;html=1;fontFamily=Roboto;verticalAlign=top;fillColor=#FFCEB5;strokeColor=#5E271C;fontColor=#443454;fontStyle=1;startSize=40;strokeWidth=2;comic=0;fontSource=https%3A%2F%2Ffonts.googleapis.com%2Fcss%3Ffamily%3DRoboto;labelBackgroundColor=none;swimlaneFillColor=#B8D7FF;gradientColor=#BF8675;" parent="1" vertex="1">
                    <mxGeometry x="40" y="1280" width="80" height="40" as="geometry"/>
                </mxCell>
                <mxCell id="124" value="render(&amp;lt;title&amp;gt;, $vars = [])" style="rounded=1;whiteSpace=wrap;html=1;fontFamily=Roboto;verticalAlign=top;fillColor=#FFCEB5;strokeColor=#5E271C;fontColor=#443454;fontStyle=1;startSize=40;strokeWidth=2;comic=0;fontSource=https%3A%2F%2Ffonts.googleapis.com%2Fcss%3Ffamily%3DRoboto;labelBackgroundColor=none;swimlaneFillColor=#B8D7FF;gradientColor=#BF8675;" parent="1" vertex="1">
                    <mxGeometry x="-320" y="1360" width="80" height="40" as="geometry"/>
                </mxCell>
                <mxCell id="125" value="" style="fontSize=12;html=1;endArrow=openThin;fontFamily=Roboto;verticalAlign=top;fillColor=#CCE5FF;strokeColor=#5E1818;fontColor=#124528;fontStyle=1;startSize=40;strokeWidth=2;comic=0;fontSource=https%3A%2F%2Ffonts.googleapis.com%2Fcss%3Ffamily%3DRoboto;labelBackgroundColor=none;swimlaneFillColor=#B8D7FF;gradientColor=#CCCCFF;rounded=0;endFill=0;dashed=1;" parent="1" source="95" target="124" edge="1">
                    <mxGeometry x="0.7342" y="5" width="100" height="100" relative="1" as="geometry">
                        <mxPoint x="-70.00000000000023" y="850" as="sourcePoint"/>
                        <mxPoint x="-70.00000000000023" y="1210" as="targetPoint"/>
                        <mxPoint as="offset"/>
                    </mxGeometry>
                </mxCell>
                <mxCell id="127" value="$$view -&amp;gt; render(&amp;lt;title&amp;gt;, $vars))" style="fontSize=12;html=1;endArrow=openThin;fontFamily=Roboto;verticalAlign=top;fillColor=#CCE5FF;strokeColor=#5E1818;fontColor=#124528;fontStyle=1;startSize=40;strokeWidth=2;comic=0;fontSource=https%3A%2F%2Ffonts.googleapis.com%2Fcss%3Ffamily%3DRoboto;labelBackgroundColor=none;swimlaneFillColor=#B8D7FF;gradientColor=#CCCCFF;rounded=0;endFill=0;dashed=1;" parent="1" source="121" target="95" edge="1">
                    <mxGeometry x="-0.25" y="21" width="100" height="100" relative="1" as="geometry">
                        <mxPoint x="-269.9999999999998" y="1010" as="sourcePoint"/>
                        <mxPoint x="-269.9999999999998" y="1250" as="targetPoint"/>
                        <mxPoint y="1" as="offset"/>
                    </mxGeometry>
                </mxCell>
                <mxCell id="128" value="&amp;lt;action&amp;gt;.php" style="rounded=1;whiteSpace=wrap;html=1;fontFamily=Roboto;verticalAlign=top;fillColor=#C7FFEA;strokeColor=#195E37;fontColor=#443454;fontStyle=1;startSize=40;strokeWidth=2;comic=0;fontSource=https%3A%2F%2Ffonts.googleapis.com%2Fcss%3Ffamily%3DRoboto;labelBackgroundColor=none;swimlaneFillColor=#B8D7FF;gradientColor=#89D4A4;" parent="1" vertex="1">
                    <mxGeometry x="380" y="1400" width="80" height="40" as="geometry"/>
                </mxCell>
                <mxCell id="129" value="layouts/" style="rounded=1;whiteSpace=wrap;html=1;fontFamily=Roboto;verticalAlign=top;fillColor=#CCE5FF;strokeColor=#8064B8;fontColor=#443454;fontStyle=1;startSize=40;strokeWidth=2;comic=0;fontSource=https%3A%2F%2Ffonts.googleapis.com%2Fcss%3Ffamily%3DRoboto;labelBackgroundColor=none;swimlaneFillColor=#B8D7FF;gradientColor=#CCCCFF;" parent="1" vertex="1">
                    <mxGeometry x="280" y="600" width="80" height="40" as="geometry"/>
                </mxCell>
                <mxCell id="130" value="&amp;lt;controller&amp;gt;/" style="rounded=1;whiteSpace=wrap;html=1;fontFamily=Roboto;verticalAlign=top;fillColor=#CCE5FF;strokeColor=#8064B8;fontColor=#443454;fontStyle=1;startSize=40;strokeWidth=2;comic=0;fontSource=https%3A%2F%2Ffonts.googleapis.com%2Fcss%3Ffamily%3DRoboto;labelBackgroundColor=none;swimlaneFillColor=#B8D7FF;gradientColor=#CCCCFF;" parent="1" vertex="1">
                    <mxGeometry x="380" y="600" width="80" height="40" as="geometry"/>
                </mxCell>
                <mxCell id="133" value="" style="fontSize=12;html=1;endArrow=openThin;fontFamily=Roboto;verticalAlign=top;fillColor=#CCE5FF;strokeColor=#563B8C;fontColor=#443454;fontStyle=1;startSize=40;strokeWidth=2;comic=0;fontSource=https%3A%2F%2Ffonts.googleapis.com%2Fcss%3Ffamily%3DRoboto;labelBackgroundColor=none;swimlaneFillColor=#B8D7FF;gradientColor=#CCCCFF;rounded=0;endFill=0;" parent="1" source="130" target="128" edge="1">
                    <mxGeometry width="100" height="100" relative="1" as="geometry">
                        <mxPoint x="210" y="650" as="sourcePoint"/>
                        <mxPoint x="210" y="930" as="targetPoint"/>
                    </mxGeometry>
                </mxCell>
                <mxCell id="134" value="" style="fontSize=12;html=1;endArrow=openThin;fontFamily=Roboto;verticalAlign=top;fillColor=#CCE5FF;strokeColor=#5E1818;fontColor=#124528;fontStyle=1;startSize=40;strokeWidth=2;comic=0;fontSource=https%3A%2F%2Ffonts.googleapis.com%2Fcss%3Ffamily%3DRoboto;labelBackgroundColor=none;swimlaneFillColor=#B8D7FF;gradientColor=#CCCCFF;rounded=0;endFill=0;dashed=1;" parent="1" source="111" target="123" edge="1">
                    <mxGeometry x="0.7342" y="5" width="100" height="100" relative="1" as="geometry">
                        <mxPoint x="-30" y="850" as="sourcePoint"/>
                        <mxPoint x="-30" y="1210" as="targetPoint"/>
                        <mxPoint as="offset"/>
                    </mxGeometry>
                </mxCell>
                <mxCell id="135" value="require *&lt;br&gt;$content = *" style="fontSize=12;html=1;endArrow=openThin;fontFamily=Roboto;verticalAlign=top;fillColor=#CCE5FF;strokeColor=#195E37;fontColor=#124528;fontStyle=1;startSize=40;strokeWidth=2;comic=0;fontSource=https%3A%2F%2Ffonts.googleapis.com%2Fcss%3Ffamily%3DRoboto;labelBackgroundColor=none;swimlaneFillColor=#B8D7FF;gradientColor=#CCCCFF;rounded=0;endFill=0;dashed=1;dashPattern=1 4;" parent="1" source="124" target="128" edge="1">
                    <mxGeometry x="0.5589" y="40" width="100" height="100" relative="1" as="geometry">
                        <mxPoint x="-670" y="1273.636363636364" as="sourcePoint"/>
                        <mxPoint x="-1030" y="1306.3636363636365" as="targetPoint"/>
                        <mxPoint as="offset"/>
                    </mxGeometry>
                </mxCell>
                <mxCell id="136" value="" style="fontSize=12;html=1;endArrow=openThin;fontFamily=Roboto;verticalAlign=top;fillColor=#CCE5FF;strokeColor=#563B8C;fontColor=#443454;fontStyle=1;startSize=40;strokeWidth=2;comic=0;fontSource=https%3A%2F%2Ffonts.googleapis.com%2Fcss%3Ffamily%3DRoboto;labelBackgroundColor=none;swimlaneFillColor=#B8D7FF;gradientColor=#CCCCFF;rounded=0;endFill=0;" parent="1" source="64" target="129" edge="1">
                    <mxGeometry width="100" height="100" relative="1" as="geometry">
                        <mxPoint x="293.3333333333335" y="530" as="sourcePoint"/>
                        <mxPoint x="226.66666666666697" y="610" as="targetPoint"/>
                    </mxGeometry>
                </mxCell>
                <mxCell id="137" value="" style="fontSize=12;html=1;endArrow=openThin;fontFamily=Roboto;verticalAlign=top;fillColor=#CCE5FF;strokeColor=#563B8C;fontColor=#443454;fontStyle=1;startSize=40;strokeWidth=2;comic=0;fontSource=https%3A%2F%2Ffonts.googleapis.com%2Fcss%3Ffamily%3DRoboto;labelBackgroundColor=none;swimlaneFillColor=#B8D7FF;gradientColor=#CCCCFF;rounded=0;endFill=0;" parent="1" source="64" target="130" edge="1">
                    <mxGeometry width="100" height="100" relative="1" as="geometry">
                        <mxPoint x="310" y="530" as="sourcePoint"/>
                        <mxPoint x="310" y="610" as="targetPoint"/>
                    </mxGeometry>
                </mxCell>
                <mxCell id="138" value="&amp;lt;layout&amp;gt;.php" style="rounded=1;whiteSpace=wrap;html=1;fontFamily=Roboto;verticalAlign=top;fillColor=#C7FFEA;strokeColor=#195E37;fontColor=#443454;fontStyle=1;startSize=40;strokeWidth=2;comic=0;fontSource=https%3A%2F%2Ffonts.googleapis.com%2Fcss%3Ffamily%3DRoboto;labelBackgroundColor=none;swimlaneFillColor=#B8D7FF;gradientColor=#89D4A4;" parent="1" vertex="1">
                    <mxGeometry x="280" y="1480" width="80" height="40" as="geometry"/>
                </mxCell>
                <mxCell id="139" value="" style="fontSize=12;html=1;endArrow=openThin;fontFamily=Roboto;verticalAlign=top;fillColor=#CCE5FF;strokeColor=#563B8C;fontColor=#443454;fontStyle=1;startSize=40;strokeWidth=2;comic=0;fontSource=https%3A%2F%2Ffonts.googleapis.com%2Fcss%3Ffamily%3DRoboto;labelBackgroundColor=none;swimlaneFillColor=#B8D7FF;gradientColor=#CCCCFF;rounded=0;endFill=0;" parent="1" source="129" target="138" edge="1">
                    <mxGeometry width="100" height="100" relative="1" as="geometry">
                        <mxPoint x="410" y="650" as="sourcePoint"/>
                        <mxPoint x="410" y="1290" as="targetPoint"/>
                    </mxGeometry>
                </mxCell>
                <mxCell id="140" value="require &amp;lt;$$layout&amp;gt;.php" style="fontSize=12;html=1;endArrow=openThin;fontFamily=Roboto;verticalAlign=top;fillColor=#CCE5FF;strokeColor=#195E37;fontColor=#124528;fontStyle=1;startSize=40;strokeWidth=2;comic=0;fontSource=https%3A%2F%2Ffonts.googleapis.com%2Fcss%3Ffamily%3DRoboto;labelBackgroundColor=none;swimlaneFillColor=#B8D7FF;gradientColor=#CCCCFF;rounded=0;endFill=0;dashed=1;dashPattern=1 4;" parent="1" source="124" target="138" edge="1">
                    <mxGeometry x="0.7367" y="29" width="100" height="100" relative="1" as="geometry">
                        <mxPoint x="-230" y="1392.3529411764707" as="sourcePoint"/>
                        <mxPoint x="370" y="1427.6470588235293" as="targetPoint"/>
                        <mxPoint as="offset"/>
                    </mxGeometry>
                </mxCell>
                <mxCell id="141" value="errorCode($code)" style="rounded=1;whiteSpace=wrap;html=1;fontFamily=Roboto;verticalAlign=top;fillColor=#FFCEB5;strokeColor=#5E271C;fontColor=#443454;fontStyle=1;startSize=40;strokeWidth=2;comic=0;fontSource=https%3A%2F%2Ffonts.googleapis.com%2Fcss%3Ffamily%3DRoboto;labelBackgroundColor=none;swimlaneFillColor=#B8D7FF;gradientColor=#BF8675;" parent="1" vertex="1">
                    <mxGeometry x="120" y="760" width="80" height="40" as="geometry"/>
                </mxCell>
                <mxCell id="142" value="" style="fontSize=12;html=1;endArrow=openThin;fontFamily=Roboto;verticalAlign=top;fillColor=#CCE5FF;strokeColor=#5E1818;fontColor=#124528;fontStyle=1;startSize=40;strokeWidth=2;comic=0;fontSource=https%3A%2F%2Ffonts.googleapis.com%2Fcss%3Ffamily%3DRoboto;labelBackgroundColor=none;swimlaneFillColor=#B8D7FF;gradientColor=#CCCCFF;rounded=0;endFill=0;dashed=1;" parent="1" source="95" target="141" edge="1">
                    <mxGeometry x="0.7342" y="5" width="100" height="100" relative="1" as="geometry">
                        <mxPoint x="-270" y="1010" as="sourcePoint"/>
                        <mxPoint x="-270" y="1250" as="targetPoint"/>
                        <mxPoint as="offset"/>
                    </mxGeometry>
                </mxCell>
                <mxCell id="145" value="$$model -&amp;gt; &amp;lt;method&amp;gt;()" style="fontSize=12;html=1;endArrow=openThin;fontFamily=Roboto;verticalAlign=top;fillColor=#CCE5FF;strokeColor=#5E1818;fontColor=#124528;fontStyle=1;startSize=40;strokeWidth=2;comic=0;fontSource=https%3A%2F%2Ffonts.googleapis.com%2Fcss%3Ffamily%3DRoboto;labelBackgroundColor=none;swimlaneFillColor=#B8D7FF;gradientColor=#CCCCFF;rounded=0;endFill=0;dashed=1;" parent="1" source="121" target="111" edge="1">
                    <mxGeometry x="0.2667" y="-10" width="100" height="100" relative="1" as="geometry">
                        <mxPoint x="-50" y="1210" as="sourcePoint"/>
                        <mxPoint x="-250" y="1010" as="targetPoint"/>
                        <mxPoint as="offset"/>
                    </mxGeometry>
                </mxCell>
                <mxCell id="146" value="$$db:&lt;br&gt;-&amp;gt; query(*)&lt;br&gt;-&amp;gt; row(*)&lt;br&gt;-&amp;gt; column(*)" style="fontSize=12;html=1;endArrow=openThin;fontFamily=Roboto;verticalAlign=top;fillColor=#CCE5FF;strokeColor=#5E1818;fontColor=#124528;fontStyle=1;startSize=40;strokeWidth=2;comic=0;fontSource=https%3A%2F%2Ffonts.googleapis.com%2Fcss%3Ffamily%3DRoboto;labelBackgroundColor=none;swimlaneFillColor=#B8D7FF;gradientColor=#CCCCFF;rounded=0;endFill=0;dashed=1;" parent="1" source="123" target="115" edge="1">
                    <mxGeometry x="0.7342" y="5" width="100" height="100" relative="1" as="geometry">
                        <mxPoint x="-270" y="1010" as="sourcePoint"/>
                        <mxPoint x="-560" y="1190" as="targetPoint"/>
                        <mxPoint as="offset"/>
                    </mxGeometry>
                </mxCell>
                <mxCell id="150" value="&amp;lt;type&amp;gt;/" style="rounded=1;whiteSpace=wrap;html=1;fontFamily=Roboto;verticalAlign=top;fillColor=#CCE5FF;strokeColor=#8064B8;fontColor=#443454;fontStyle=1;startSize=40;strokeWidth=2;comic=0;fontSource=https%3A%2F%2Ffonts.googleapis.com%2Fcss%3Ffamily%3DRoboto;labelBackgroundColor=none;swimlaneFillColor=#B8D7FF;gradientColor=#CCCCFF;" parent="1" vertex="1">
                    <mxGeometry x="520" y="480" width="80" height="40" as="geometry"/>
                </mxCell>
                <mxCell id="151" value="&amp;lt;type&amp;gt;/" style="rounded=1;whiteSpace=wrap;html=1;fontFamily=Roboto;verticalAlign=top;fillColor=#CCE5FF;strokeColor=#8064B8;fontColor=#443454;fontStyle=1;startSize=40;strokeWidth=2;comic=0;fontSource=https%3A%2F%2Ffonts.googleapis.com%2Fcss%3Ffamily%3DRoboto;labelBackgroundColor=none;swimlaneFillColor=#B8D7FF;gradientColor=#CCCCFF;" parent="1" vertex="1">
                    <mxGeometry x="520" y="600" width="80" height="40" as="geometry"/>
                </mxCell>
                <mxCell id="152" value="&amp;lt;file&amp;gt;.&amp;lt;ext&amp;gt;" style="rounded=1;whiteSpace=wrap;html=1;fontFamily=Roboto;verticalAlign=top;fillColor=#C7FFEA;strokeColor=#195E37;fontColor=#443454;fontStyle=1;startSize=40;strokeWidth=2;comic=0;fontSource=https%3A%2F%2Ffonts.googleapis.com%2Fcss%3Ffamily%3DRoboto;labelBackgroundColor=none;swimlaneFillColor=#B8D7FF;gradientColor=#89D4A4;" parent="1" vertex="1">
                    <mxGeometry x="520" y="920" width="80" height="40" as="geometry"/>
                </mxCell>
                <mxCell id="153" value="" style="fontSize=12;html=1;endArrow=none;fontFamily=Roboto;verticalAlign=top;fillColor=#CCE5FF;strokeColor=#195E37;fontColor=#124528;fontStyle=1;startSize=40;strokeWidth=2;comic=0;fontSource=https%3A%2F%2Ffonts.googleapis.com%2Fcss%3Ffamily%3DRoboto;labelBackgroundColor=none;swimlaneFillColor=#B8D7FF;gradientColor=#CCCCFF;rounded=0;endFill=0;dashed=1;dashPattern=1 4;" parent="1" source="104" target="152" edge="1">
                    <mxGeometry x="0.5589" y="40" width="100" height="100" relative="1" as="geometry">
                        <mxPoint x="-230" y="1392.2857142857142" as="sourcePoint"/>
                        <mxPoint x="390" y="1427.7142857142858" as="targetPoint"/>
                        <mxPoint as="offset"/>
                    </mxGeometry>
                </mxCell>
                <mxCell id="154" value="" style="fontSize=12;html=1;endArrow=none;fontFamily=Roboto;verticalAlign=top;fillColor=#CCE5FF;strokeColor=#195E37;fontColor=#124528;fontStyle=1;startSize=40;strokeWidth=2;comic=0;fontSource=https%3A%2F%2Ffonts.googleapis.com%2Fcss%3Ffamily%3DRoboto;labelBackgroundColor=none;swimlaneFillColor=#B8D7FF;gradientColor=#CCCCFF;rounded=0;endFill=0;dashed=1;dashPattern=1 4;" parent="1" source="138" target="152" edge="1">
                    <mxGeometry x="0.5589" y="40" width="100" height="100" relative="1" as="geometry">
                        <mxPoint x="270" y="914.705882352941" as="sourcePoint"/>
                        <mxPoint x="530" y="945.294117647059" as="targetPoint"/>
                        <mxPoint as="offset"/>
                    </mxGeometry>
                </mxCell>
                <mxCell id="155" value="" style="fontSize=12;html=1;endArrow=none;fontFamily=Roboto;verticalAlign=top;fillColor=#CCE5FF;strokeColor=#195E37;fontColor=#124528;fontStyle=1;startSize=40;strokeWidth=2;comic=0;fontSource=https%3A%2F%2Ffonts.googleapis.com%2Fcss%3Ffamily%3DRoboto;labelBackgroundColor=none;swimlaneFillColor=#B8D7FF;gradientColor=#CCCCFF;rounded=0;endFill=0;dashed=1;dashPattern=1 4;" parent="1" source="128" target="152" edge="1">
                    <mxGeometry x="0.5589" y="40" width="100" height="100" relative="1" as="geometry">
                        <mxPoint x="338.57142857142844" y="1490" as="sourcePoint"/>
                        <mxPoint x="561.4285714285711" y="970" as="targetPoint"/>
                        <mxPoint as="offset"/>
                    </mxGeometry>
                </mxCell>
                <mxCell id="156" value="" style="fontSize=12;html=1;endArrow=openThin;fontFamily=Roboto;verticalAlign=top;fillColor=#CCE5FF;strokeColor=#563B8C;fontColor=#443454;fontStyle=1;startSize=40;strokeWidth=2;comic=0;fontSource=https%3A%2F%2Ffonts.googleapis.com%2Fcss%3Ffamily%3DRoboto;labelBackgroundColor=none;swimlaneFillColor=#B8D7FF;gradientColor=#CCCCFF;rounded=0;endFill=0;" parent="1" source="150" target="151" edge="1">
                    <mxGeometry width="100" height="100" relative="1" as="geometry">
                        <mxPoint x="330" y="530" as="sourcePoint"/>
                        <mxPoint x="410" y="610" as="targetPoint"/>
                    </mxGeometry>
                </mxCell>
                <mxCell id="157" value="" style="fontSize=12;html=1;endArrow=openThin;fontFamily=Roboto;verticalAlign=top;fillColor=#CCE5FF;strokeColor=#563B8C;fontColor=#443454;fontStyle=1;startSize=40;strokeWidth=2;comic=0;fontSource=https%3A%2F%2Ffonts.googleapis.com%2Fcss%3Ffamily%3DRoboto;labelBackgroundColor=none;swimlaneFillColor=#B8D7FF;gradientColor=#CCCCFF;rounded=0;endFill=0;" parent="1" source="52" target="150" edge="1">
                    <mxGeometry width="100" height="100" relative="1" as="geometry">
                        <mxPoint x="570" y="530" as="sourcePoint"/>
                        <mxPoint x="570" y="610" as="targetPoint"/>
                    </mxGeometry>
                </mxCell>
                <mxCell id="158" value="" style="fontSize=12;html=1;endArrow=openThin;fontFamily=Roboto;verticalAlign=top;fillColor=#CCE5FF;strokeColor=#563B8C;fontColor=#443454;fontStyle=1;startSize=40;strokeWidth=2;comic=0;fontSource=https%3A%2F%2Ffonts.googleapis.com%2Fcss%3Ffamily%3DRoboto;labelBackgroundColor=none;swimlaneFillColor=#B8D7FF;gradientColor=#CCCCFF;rounded=0;endFill=0;" parent="1" source="151" target="152" edge="1">
                    <mxGeometry width="100" height="100" relative="1" as="geometry">
                        <mxPoint x="570" y="530" as="sourcePoint"/>
                        <mxPoint x="570" y="610" as="targetPoint"/>
                    </mxGeometry>
                </mxCell>
            </root>
        </mxGraphModel>
    </diagram>
    <diagram id="X1PnnN2oEw92OrGu6Gwj" name="Страница 2">
        <mxGraphModel dx="903" dy="835" grid="1" gridSize="10" guides="1" tooltips="1" connect="1" arrows="1" fold="1" page="1" pageScale="1" pageWidth="827" pageHeight="1169" math="0" shadow="0">
            <root>
                <mxCell id="0"/>
                <mxCell id="1" parent="0"/>
                <mxCell id="1BXxCl8WoXB_aqeOSVlW-3" value="" style="edgeStyle=none;html=1;" edge="1" parent="1" source="1BXxCl8WoXB_aqeOSVlW-1" target="1BXxCl8WoXB_aqeOSVlW-2">
                    <mxGeometry relative="1" as="geometry"/>
                </mxCell>
                <mxCell id="1BXxCl8WoXB_aqeOSVlW-1" value="Регистрация" style="rounded=1;whiteSpace=wrap;html=1;fontFamily=Roboto;verticalAlign=top;fillColor=#CCE5FF;strokeColor=#8064B8;fontColor=#443454;fontStyle=1;startSize=40;strokeWidth=2;comic=0;fontSource=https%3A%2F%2Ffonts.googleapis.com%2Fcss%3Ffamily%3DRoboto;labelBackgroundColor=none;swimlaneFillColor=#B8D7FF;gradientColor=#CCCCFF;" vertex="1" parent="1">
                    <mxGeometry x="200" y="40" width="80" height="40" as="geometry"/>
                </mxCell>
                <mxCell id="1BXxCl8WoXB_aqeOSVlW-2" value="Ввод Логина" style="rounded=1;whiteSpace=wrap;html=1;fontFamily=Roboto;verticalAlign=top;fillColor=#CCE5FF;strokeColor=#8064B8;fontColor=#443454;fontStyle=1;startSize=40;strokeWidth=2;comic=0;fontSource=https%3A%2F%2Ffonts.googleapis.com%2Fcss%3Ffamily%3DRoboto;labelBackgroundColor=none;swimlaneFillColor=#B8D7FF;gradientColor=#CCCCFF;" vertex="1" parent="1">
                    <mxGeometry x="480" y="200" width="80" height="40" as="geometry"/>
                </mxCell>
                <mxCell id="1BXxCl8WoXB_aqeOSVlW-4" value="Авторизация" style="rounded=1;whiteSpace=wrap;html=1;fontFamily=Roboto;verticalAlign=top;fillColor=#CCE5FF;strokeColor=#8064B8;fontColor=#443454;fontStyle=1;startSize=40;strokeWidth=2;comic=0;fontSource=https%3A%2F%2Ffonts.googleapis.com%2Fcss%3Ffamily%3DRoboto;labelBackgroundColor=none;swimlaneFillColor=#B8D7FF;gradientColor=#CCCCFF;" vertex="1" parent="1">
                    <mxGeometry x="520" y="40" width="80" height="40" as="geometry"/>
                </mxCell>
                <mxCell id="1BXxCl8WoXB_aqeOSVlW-5" value="Ввод Пароля" style="rounded=1;whiteSpace=wrap;html=1;fontFamily=Roboto;verticalAlign=top;fillColor=#CCE5FF;strokeColor=#8064B8;fontColor=#443454;fontStyle=1;startSize=40;strokeWidth=2;comic=0;fontSource=https%3A%2F%2Ffonts.googleapis.com%2Fcss%3Ffamily%3DRoboto;labelBackgroundColor=none;swimlaneFillColor=#B8D7FF;gradientColor=#CCCCFF;" vertex="1" parent="1">
                    <mxGeometry x="360" y="200" width="80" height="40" as="geometry"/>
                </mxCell>
                <mxCell id="1BXxCl8WoXB_aqeOSVlW-6" value="" style="edgeStyle=none;html=1;" edge="1" parent="1" source="1BXxCl8WoXB_aqeOSVlW-1" target="1BXxCl8WoXB_aqeOSVlW-5">
                    <mxGeometry relative="1" as="geometry">
                        <mxPoint x="305" y="130" as="sourcePoint"/>
                        <mxPoint x="395" y="250" as="targetPoint"/>
                    </mxGeometry>
                </mxCell>
                <mxCell id="1BXxCl8WoXB_aqeOSVlW-7" value="" style="edgeStyle=none;html=1;" edge="1" parent="1" source="1BXxCl8WoXB_aqeOSVlW-4" target="1BXxCl8WoXB_aqeOSVlW-5">
                    <mxGeometry relative="1" as="geometry">
                        <mxPoint x="300" y="130" as="sourcePoint"/>
                        <mxPoint x="400" y="330" as="targetPoint"/>
                    </mxGeometry>
                </mxCell>
                <mxCell id="1BXxCl8WoXB_aqeOSVlW-8" value="" style="edgeStyle=none;html=1;" edge="1" parent="1" source="1BXxCl8WoXB_aqeOSVlW-4" target="1BXxCl8WoXB_aqeOSVlW-2">
                    <mxGeometry relative="1" as="geometry">
                        <mxPoint x="520" y="130" as="sourcePoint"/>
                        <mxPoint x="420" y="330" as="targetPoint"/>
                    </mxGeometry>
                </mxCell>
                <mxCell id="1BXxCl8WoXB_aqeOSVlW-9" value="Ввод Почты&lt;br&gt;" style="rounded=1;whiteSpace=wrap;html=1;fontFamily=Roboto;verticalAlign=top;fillColor=#CCE5FF;strokeColor=#8064B8;fontColor=#443454;fontStyle=1;startSize=40;strokeWidth=2;comic=0;fontSource=https%3A%2F%2Ffonts.googleapis.com%2Fcss%3Ffamily%3DRoboto;labelBackgroundColor=none;swimlaneFillColor=#B8D7FF;gradientColor=#CCCCFF;" vertex="1" parent="1">
                    <mxGeometry x="240" y="200" width="80" height="40" as="geometry"/>
                </mxCell>
                <mxCell id="1BXxCl8WoXB_aqeOSVlW-10" value="" style="edgeStyle=none;html=1;" edge="1" parent="1" source="1BXxCl8WoXB_aqeOSVlW-1" target="1BXxCl8WoXB_aqeOSVlW-9">
                    <mxGeometry relative="1" as="geometry">
                        <mxPoint x="300" y="130" as="sourcePoint"/>
                        <mxPoint x="400" y="330" as="targetPoint"/>
                    </mxGeometry>
                </mxCell>
                <mxCell id="1BXxCl8WoXB_aqeOSVlW-11" value="Валидация" style="rounded=1;whiteSpace=wrap;html=1;fontFamily=Roboto;verticalAlign=top;fillColor=#CCE5FF;strokeColor=#8064B8;fontColor=#443454;fontStyle=1;startSize=40;strokeWidth=2;comic=0;fontSource=https%3A%2F%2Ffonts.googleapis.com%2Fcss%3Ffamily%3DRoboto;labelBackgroundColor=none;swimlaneFillColor=#B8D7FF;gradientColor=#CCCCFF;" vertex="1" parent="1">
                    <mxGeometry x="200" y="320" width="80" height="40" as="geometry"/>
                </mxCell>
                <mxCell id="1BXxCl8WoXB_aqeOSVlW-12" value="" style="edgeStyle=none;html=1;" edge="1" parent="1" source="1BXxCl8WoXB_aqeOSVlW-9" target="1BXxCl8WoXB_aqeOSVlW-11">
                    <mxGeometry relative="1" as="geometry">
                        <mxPoint x="290" y="10" as="sourcePoint"/>
                        <mxPoint x="290" y="210" as="targetPoint"/>
                    </mxGeometry>
                </mxCell>
                <mxCell id="1BXxCl8WoXB_aqeOSVlW-13" value="" style="edgeStyle=none;html=1;" edge="1" parent="1" source="1BXxCl8WoXB_aqeOSVlW-5" target="1BXxCl8WoXB_aqeOSVlW-11">
                    <mxGeometry relative="1" as="geometry">
                        <mxPoint x="310" y="250" as="sourcePoint"/>
                        <mxPoint x="390" y="330" as="targetPoint"/>
                    </mxGeometry>
                </mxCell>
                <mxCell id="1BXxCl8WoXB_aqeOSVlW-14" value="" style="edgeStyle=none;html=1;" edge="1" parent="1" source="1BXxCl8WoXB_aqeOSVlW-2" target="1BXxCl8WoXB_aqeOSVlW-11">
                    <mxGeometry relative="1" as="geometry">
                        <mxPoint x="410" y="250" as="sourcePoint"/>
                        <mxPoint x="410" y="330" as="targetPoint"/>
                    </mxGeometry>
                </mxCell>
                <mxCell id="1BXxCl8WoXB_aqeOSVlW-15" value="Проверка совпадения" style="rounded=1;whiteSpace=wrap;html=1;fontFamily=Roboto;verticalAlign=top;fillColor=#CCE5FF;strokeColor=#8064B8;fontColor=#443454;fontStyle=1;startSize=40;strokeWidth=2;comic=0;fontSource=https%3A%2F%2Ffonts.googleapis.com%2Fcss%3Ffamily%3DRoboto;labelBackgroundColor=none;swimlaneFillColor=#B8D7FF;gradientColor=#CCCCFF;" vertex="1" parent="1">
                    <mxGeometry x="520" y="480" width="80" height="40" as="geometry"/>
                </mxCell>
                <mxCell id="1BXxCl8WoXB_aqeOSVlW-16" value="" style="edgeStyle=none;html=1;" edge="1" parent="1" source="1BXxCl8WoXB_aqeOSVlW-2" target="1BXxCl8WoXB_aqeOSVlW-15">
                    <mxGeometry relative="1" as="geometry">
                        <mxPoint x="496.66666666666674" y="250" as="sourcePoint"/>
                        <mxPoint x="363.33333333333326" y="330" as="targetPoint"/>
                    </mxGeometry>
                </mxCell>
                <mxCell id="1BXxCl8WoXB_aqeOSVlW-17" value="" style="edgeStyle=none;html=1;" edge="1" parent="1" source="1BXxCl8WoXB_aqeOSVlW-5" target="1BXxCl8WoXB_aqeOSVlW-15">
                    <mxGeometry relative="1" as="geometry">
                        <mxPoint x="523.3333333333333" y="250" as="sourcePoint"/>
                        <mxPoint x="496.66666666666674" y="330" as="targetPoint"/>
                    </mxGeometry>
                </mxCell>
                <mxCell id="1BXxCl8WoXB_aqeOSVlW-18" value="Проверка наличия user" style="rounded=1;whiteSpace=wrap;html=1;fontFamily=Roboto;verticalAlign=top;fillColor=#CCE5FF;strokeColor=#8064B8;fontColor=#443454;fontStyle=1;startSize=40;strokeWidth=2;comic=0;fontSource=https%3A%2F%2Ffonts.googleapis.com%2Fcss%3Ffamily%3DRoboto;labelBackgroundColor=none;swimlaneFillColor=#B8D7FF;gradientColor=#CCCCFF;" vertex="1" parent="1">
                    <mxGeometry x="200" y="400" width="80" height="40" as="geometry"/>
                </mxCell>
                <mxCell id="1BXxCl8WoXB_aqeOSVlW-19" value="Создание пользователя" style="rounded=1;whiteSpace=wrap;html=1;fontFamily=Roboto;verticalAlign=top;fillColor=#CCE5FF;strokeColor=#8064B8;fontColor=#443454;fontStyle=1;startSize=40;strokeWidth=2;comic=0;fontSource=https%3A%2F%2Ffonts.googleapis.com%2Fcss%3Ffamily%3DRoboto;labelBackgroundColor=none;swimlaneFillColor=#B8D7FF;gradientColor=#CCCCFF;" vertex="1" parent="1">
                    <mxGeometry x="200" y="480" width="80" height="40" as="geometry"/>
                </mxCell>
                <mxCell id="1BXxCl8WoXB_aqeOSVlW-20" value="" style="edgeStyle=none;html=1;" edge="1" parent="1" source="1BXxCl8WoXB_aqeOSVlW-11" target="1BXxCl8WoXB_aqeOSVlW-18">
                    <mxGeometry relative="1" as="geometry">
                        <mxPoint x="296.66666666666674" y="250" as="sourcePoint"/>
                        <mxPoint x="323.33333333333326" y="330" as="targetPoint"/>
                    </mxGeometry>
                </mxCell>
                <mxCell id="1BXxCl8WoXB_aqeOSVlW-21" value="" style="edgeStyle=none;html=1;" edge="1" parent="1" source="1BXxCl8WoXB_aqeOSVlW-18" target="1BXxCl8WoXB_aqeOSVlW-19">
                    <mxGeometry relative="1" as="geometry">
                        <mxPoint x="330" y="370" as="sourcePoint"/>
                        <mxPoint x="330" y="410" as="targetPoint"/>
                    </mxGeometry>
                </mxCell>
                <mxCell id="1BXxCl8WoXB_aqeOSVlW-22" value="" style="edgeStyle=none;html=1;" edge="1" parent="1" source="1BXxCl8WoXB_aqeOSVlW-15" target="1BXxCl8WoXB_aqeOSVlW-23">
                    <mxGeometry relative="1" as="geometry">
                        <mxPoint x="330" y="450" as="sourcePoint"/>
                        <mxPoint x="330" y="490" as="targetPoint"/>
                    </mxGeometry>
                </mxCell>
                <mxCell id="1BXxCl8WoXB_aqeOSVlW-23" value="Запись в сессию" style="rounded=1;whiteSpace=wrap;html=1;fontFamily=Roboto;verticalAlign=top;fillColor=#CCE5FF;strokeColor=#8064B8;fontColor=#443454;fontStyle=1;startSize=40;strokeWidth=2;comic=0;fontSource=https%3A%2F%2Ffonts.googleapis.com%2Fcss%3Ffamily%3DRoboto;labelBackgroundColor=none;swimlaneFillColor=#B8D7FF;gradientColor=#CCCCFF;" vertex="1" parent="1">
                    <mxGeometry x="360" y="600" width="80" height="40" as="geometry"/>
                </mxCell>
                <mxCell id="oRYo0S5bDQPIchIKvo95-1" value="Ошибки" style="rounded=1;whiteSpace=wrap;html=1;fontFamily=Roboto;verticalAlign=top;fillColor=#FFCEB5;strokeColor=#5E271C;fontColor=#443454;fontStyle=1;startSize=40;strokeWidth=2;comic=0;fontSource=https%3A%2F%2Ffonts.googleapis.com%2Fcss%3Ffamily%3DRoboto;labelBackgroundColor=none;swimlaneFillColor=#B8D7FF;gradientColor=#BF8675;" vertex="1" parent="1">
                    <mxGeometry x="360" y="360" width="80" height="40" as="geometry"/>
                </mxCell>
                <mxCell id="oRYo0S5bDQPIchIKvo95-2" value="" style="edgeStyle=none;html=1;" edge="1" parent="1" source="1BXxCl8WoXB_aqeOSVlW-18" target="oRYo0S5bDQPIchIKvo95-1">
                    <mxGeometry relative="1" as="geometry">
                        <mxPoint x="256.66666666666674" y="450" as="sourcePoint"/>
                        <mxPoint x="283.33333333333326" y="530" as="targetPoint"/>
                    </mxGeometry>
                </mxCell>
                <mxCell id="oRYo0S5bDQPIchIKvo95-3" value="" style="edgeStyle=none;html=1;" edge="1" parent="1" source="1BXxCl8WoXB_aqeOSVlW-15" target="oRYo0S5bDQPIchIKvo95-1">
                    <mxGeometry relative="1" as="geometry">
                        <mxPoint x="290" y="430" as="sourcePoint"/>
                        <mxPoint x="370" y="430" as="targetPoint"/>
                    </mxGeometry>
                </mxCell>
                <mxCell id="oRYo0S5bDQPIchIKvo95-4" value="" style="edgeStyle=none;html=1;" edge="1" parent="1" source="1BXxCl8WoXB_aqeOSVlW-11" target="oRYo0S5bDQPIchIKvo95-1">
                    <mxGeometry relative="1" as="geometry">
                        <mxPoint x="290" y="430" as="sourcePoint"/>
                        <mxPoint x="370" y="430" as="targetPoint"/>
                    </mxGeometry>
                </mxCell>
                <mxCell id="oRYo0S5bDQPIchIKvo95-5" value="" style="edgeStyle=none;html=1;" edge="1" parent="1" source="1BXxCl8WoXB_aqeOSVlW-19" target="1BXxCl8WoXB_aqeOSVlW-23">
                    <mxGeometry relative="1" as="geometry">
                        <mxPoint x="250" y="450" as="sourcePoint"/>
                        <mxPoint x="250" y="490" as="targetPoint"/>
                    </mxGeometry>
                </mxCell>
            </root>
        </mxGraphModel>
    </diagram>
</mxfile>